<svg width="72" height="122" viewBox="0 0 72 122" fill="none" xmlns="http://www.w3.org/2000/svg">
<path d="M9.6 96L0.672 33.216H12.576L15.744 69.6C15.936 72.224 16.096 74.656 16.224 76.896C16.352 79.136 16.48 81.728 16.608 84.672H16.896C17.408 81.728 17.888 79.136 18.336 76.896C18.848 74.656 19.392 72.224 19.968 69.6L25.152 49.248H33.504L38.4 69.6C39.04 72.224 39.584 74.656 40.032 76.896C40.48 79.072 40.96 81.664 41.472 84.672H41.856C41.984 81.664 42.08 79.072 42.144 76.896C42.272 74.656 42.432 72.224 42.624 69.6L45.696 33.216H56.928L48.48 96H35.904L31.008 73.728C30.56 71.744 30.144 69.792 29.76 67.872C29.44 65.888 29.184 63.936 28.992 62.016H28.704C28.384 63.936 28.096 65.888 27.84 67.872C27.584 69.792 27.232 71.744 26.784 73.728L21.984 96H9.6Z" fill="white"/>
<path d="M35.304 63L47.592 41.432L36.072 21.144H44.328L49.256 30.424C49.768 31.4053 50.28 32.408 50.792 33.432C51.304 34.456 51.88 35.5867 52.52 36.824H52.776C53.3307 35.5867 53.8427 34.456 54.312 33.432C54.7813 32.408 55.2507 31.4053 55.72 30.424L60.456 21.144H68.328L56.808 41.752L69.096 63H60.904L55.464 53.144C54.8667 52.0347 54.2907 50.9467 53.736 49.88C53.1813 48.7707 52.584 47.576 51.944 46.296H51.688C51.0907 47.576 50.536 48.7707 50.024 49.88C49.512 50.9467 48.9787 52.0347 48.424 53.144L43.176 63H35.304Z" fill="#FF0000"/>
</svg>
